<mxfile host="65bd71144e">
    <diagram id="6qVnqB3NLshJXQO0oReq" name="Overview">
        <mxGraphModel dx="609" dy="239" grid="1" gridSize="10" guides="1" tooltips="1" connect="1" arrows="1" fold="1" page="1" pageScale="1" pageWidth="827" pageHeight="1169" math="0" shadow="0">
            <root>
                <mxCell id="0"/>
                <mxCell id="1" parent="0"/>
                <UserObject label="&lt;div style=&quot;font-size: 1px&quot;&gt;&lt;font style=&quot;font-size: 16.93px; color: rgb(0, 0, 0); direction: ltr; letter-spacing: 0px; line-height: 120%; opacity: 1;&quot;&gt;&lt;b style=&quot;&quot;&gt;TI-M Client ePA&lt;br&gt;&lt;/b&gt;&lt;/font&gt;&lt;/div&gt;" tags="Hintergrund" id="2">
                    <mxCell style="verticalAlign=top;align=center;overflow=width;vsdxID=1;fillColor=#f5f5f5;shape=stencil(nZBLDoAgDERP0z3SIyjew0SURgSD+Lu9kMZoXLhwN9O+tukAlrNpJg1SzDH4QW/URgNYgZTkjA4UkwJUgGXng+6DX1zLfmoymdXo17xh5zmRJ6Q42BWCfc2oJfdAr+Yv+AP9Cb7OJ3H/2JG1HNGz/84klThPVCc=);points=[];labelBackgroundColor=none;rounded=0;html=1;whiteSpace=wrap;fontColor=#333333;strokeColor=#666666;" parent="1" vertex="1">
                        <mxGeometry x="40" y="32" width="279" height="708" as="geometry"/>
                    </mxCell>
                </UserObject>
                <UserObject label="&lt;div style=&quot;font-size: 1px&quot;&gt;&lt;font style=&quot;font-size: 16.93px; color: rgb(0, 0, 0); direction: ltr; letter-spacing: 0px; line-height: 120%; opacity: 1;&quot;&gt;TI-Messenger&lt;br&gt;Modul&lt;br&gt;&lt;/font&gt;&lt;/div&gt;" tags="Hintergrund" id="17">
                    <mxCell style="verticalAlign=bottom;align=center;overflow=width;vsdxID=37;fillColor=#f2f2f2;gradientColor=none;shape=stencil(nZBLDoAgDERP0z3SIyjew0SURgSD+Lu9kMZoXLhwN9O+tukAlrNpJg1SzDH4QW/URgNYgZTkjA4UkwJUgGXng+6DX1zLfmoymdXo17xh5zmRJ6Q42BWCfc2oJfdAr+Yv+AP9Cb7OJ3H/2JG1HNGz/84klThPVCc=);points=[];labelBackgroundColor=none;rounded=0;html=1;whiteSpace=wrap;labelPosition=center;verticalLabelPosition=top;" parent="1" vertex="1">
                        <mxGeometry x="82.25" y="119" width="204" height="271" as="geometry"/>
                    </mxCell>
                </UserObject>
                <UserObject label="&lt;div style=&quot;font-size: 1px&quot;&gt;&lt;font style=&quot;font-size: 16.93px; color: rgb(0, 0, 0); direction: ltr; letter-spacing: 0px; line-height: 120%; opacity: 1;&quot;&gt;Auth&lt;br&gt;Modul&lt;br&gt;&lt;/font&gt;&lt;/div&gt;" tags="Hintergrund" id="18">
                    <mxCell style="verticalAlign=middle;align=center;overflow=width;vsdxID=39;fillColor=#dae8fc;shape=stencil(nZBLDoAgDERP0z3SIyjew0SURgSD+Lu9kMZoXLhwN9O+tukAlrNpJg1SzDH4QW/URgNYgZTkjA4UkwJUgGXng+6DX1zLfmoymdXo17xh5zmRJ6Q42BWCfc2oJfdAr+Yv+AP9Cb7OJ3H/2JG1HNGz/84klThPVCc=);points=[];labelBackgroundColor=none;rounded=0;html=1;whiteSpace=wrap;strokeColor=#6c8ebf;" parent="1" vertex="1">
                        <mxGeometry x="78" y="655.54" width="212.5" height="60.93" as="geometry"/>
                    </mxCell>
                </UserObject>
                <UserObject label="&lt;div style=&quot;font-size: 1px&quot;&gt;&lt;font style=&quot;font-size: 16.93px; color: rgb(0, 0, 0); direction: ltr; letter-spacing: 0px; line-height: 120%; opacity: 1;&quot;&gt;Messenger-Proxy&lt;br&gt;&lt;/font&gt;&lt;/div&gt;" tags="Hintergrund" id="19">
                    <mxCell style="verticalAlign=middle;align=center;overflow=width;vsdxID=49;fillColor=#dae8fc;shape=stencil(nZBLDoAgDERP0z3SIyjew0SURgSD+Lu9kMZoXLhwN9O+tukAlrNpJg1SzDH4QW/URgNYgZTkjA4UkwJUgGXng+6DX1zLfmoymdXo17xh5zmRJ6Q42BWCfc2oJfdAr+Yv+AP9Cb7OJ3H/2JG1HNGz/84klThPVCc=);points=[];labelBackgroundColor=none;rounded=0;html=1;whiteSpace=wrap;strokeColor=#6c8ebf;" parent="1" vertex="1">
                        <mxGeometry x="628" y="53" width="163" height="217" as="geometry"/>
                    </mxCell>
                </UserObject>
                <UserObject label="&lt;div style=&quot;font-size: 1px&quot;&gt;&lt;font style=&quot;font-size:16.93px;font-family:Calibri;color:#000000;direction:ltr;letter-spacing:0px;line-height:120%;opacity:1&quot;&gt;&lt;b&gt;Sektoraler&amp;nbsp;&lt;/b&gt;&lt;/font&gt;&lt;/div&gt;&lt;div style=&quot;font-size: 1px&quot;&gt;&lt;font style=&quot;font-size:16.93px;font-family:Calibri;color:#000000;direction:ltr;letter-spacing:0px;line-height:120%;opacity:1&quot;&gt;&lt;b&gt;IDP&lt;br&gt;&lt;/b&gt;&lt;/font&gt;&lt;/div&gt;" tags="Hintergrund" id="20">
                    <mxCell style="verticalAlign=middle;align=center;overflow=width;vsdxID=51;fillColor=#d5e8d4;shape=stencil(nZBLDoAgDERP0z3SIyjew0SURgSD+Lu9kMZoXLhwN9O+tukAlrNpJg1SzDH4QW/URgNYgZTkjA4UkwJUgGXng+6DX1zLfmoymdXo17xh5zmRJ6Q42BWCfc2oJfdAr+Yv+AP9Cb7OJ3H/2JG1HNGz/84klThPVCc=);points=[];labelBackgroundColor=none;rounded=0;html=1;whiteSpace=wrap;strokeColor=#82b366;" parent="1" vertex="1">
                        <mxGeometry x="627" y="643" width="216" height="88" as="geometry"/>
                    </mxCell>
                </UserObject>
                <UserObject label="TI-M Homeserver&lt;br&gt;&lt;div style=&quot;font-size: 1px&quot;&gt;&lt;/div&gt;" tags="Hintergrund" id="21">
                    <mxCell style="verticalAlign=middle;align=center;overflow=width;vsdxID=56;fillColor=#dae8fc;shape=stencil(nZBLDoAgDERP0z3SIyjew0SURgSD+Lu9kMZoXLhwN9O+tukAlrNpJg1SzDH4QW/URgNYgZTkjA4UkwJUgGXng+6DX1zLfmoymdXo17xh5zmRJ6Q42BWCfc2oJfdAr+Yv+AP9Cb7OJ3H/2JG1HNGz/84klThPVCc=);points=[];labelBackgroundColor=none;rounded=0;html=1;whiteSpace=wrap;horizontal=0;strokeColor=#6c8ebf;" parent="1" vertex="1">
                        <mxGeometry x="791" y="53" width="52" height="217" as="geometry"/>
                    </mxCell>
                </UserObject>
                <UserObject label="&lt;div style=&quot;font-size: 1px&quot;&gt;&lt;font style=&quot;font-size: 16.93px; color: rgb(0, 0, 0); direction: ltr; letter-spacing: 0px; line-height: 120%; opacity: 1;&quot;&gt;VZD-FHIR-Directory &lt;br&gt; Modul&lt;br&gt;&lt;/font&gt;&lt;/div&gt;" tags="Hintergrund" id="30">
                    <mxCell style="verticalAlign=middle;align=center;overflow=width;vsdxID=84;fillColor=#dae8fc;shape=stencil(nZBLDoAgDERP0z3SIyjew0SURgSD+Lu9kMZoXLhwN9O+tukAlrNpJg1SzDH4QW/URgNYgZTkjA4UkwJUgGXng+6DX1zLfmoymdXo17xh5zmRJ6Q42BWCfc2oJfdAr+Yv+AP9Cb7OJ3H/2JG1HNGz/84klThPVCc=);points=[];labelBackgroundColor=none;rounded=0;html=1;whiteSpace=wrap;strokeColor=#6c8ebf;" parent="1" vertex="1">
                        <mxGeometry x="82.25" y="472.75" width="204" height="123" as="geometry"/>
                    </mxCell>
                </UserObject>
                <UserObject label="&lt;div style=&quot;font-size: 1px&quot;&gt;&lt;font style=&quot;font-size: 16.93px; color: rgb(0, 0, 0); direction: ltr; letter-spacing: 0px; line-height: 120%; opacity: 1;&quot;&gt;Auth-Services&lt;br&gt;&lt;/font&gt;&lt;/div&gt;" tags="Hintergrund" id="31">
                    <mxCell style="verticalAlign=middle;align=center;overflow=width;vsdxID=110;fillColor=#dae8fc;shape=stencil(nZBLDoAgDERP0z3SIyjew0SURgSD+Lu9kMZoXLhwN9O+tukAlrNpJg1SzDH4QW/URgNYgZTkjA4UkwJUgGXng+6DX1zLfmoymdXo17xh5zmRJ6Q42BWCfc2oJfdAr+Yv+AP9Cb7OJ3H/2JG1HNGz/84klThPVCc=);points=[];labelBackgroundColor=none;rounded=0;html=1;whiteSpace=wrap;strokeColor=#6c8ebf;" parent="1" vertex="1">
                        <mxGeometry x="628" y="527.25" width="163" height="68.5" as="geometry"/>
                    </mxCell>
                </UserObject>
                <UserObject label="&lt;div style=&quot;font-size: 1px&quot;&gt;&lt;font style=&quot;font-size: 16.93px; color: rgb(0, 0, 0); direction: ltr; letter-spacing: 0px; line-height: 120%; opacity: 1;&quot;&gt;FHIR-Proxy&lt;br&gt;&lt;/font&gt;&lt;/div&gt;" tags="Hintergrund" id="32">
                    <mxCell style="verticalAlign=middle;align=center;overflow=width;vsdxID=111;fillColor=#dae8fc;shape=stencil(nZBLDoAgDERP0z3SIyjew0SURgSD+Lu9kMZoXLhwN9O+tukAlrNpJg1SzDH4QW/URgNYgZTkjA4UkwJUgGXng+6DX1zLfmoymdXo17xh5zmRJ6Q42BWCfc2oJfdAr+Yv+AP9Cb7OJ3H/2JG1HNGz/84klThPVCc=);points=[];labelBackgroundColor=none;rounded=0;html=1;whiteSpace=wrap;strokeColor=#6c8ebf;" parent="1" vertex="1">
                        <mxGeometry x="628" y="462.75" width="163" height="64.5" as="geometry"/>
                    </mxCell>
                </UserObject>
                <UserObject label="VZD-FHIR-DIR&lt;div style=&quot;font-size: 1px&quot;&gt;&lt;/div&gt;" tags="Hintergrund" id="33">
                    <mxCell style="verticalAlign=middle;align=center;overflow=width;vsdxID=112;fillColor=#f5f5f5;shape=stencil(nZBLDoAgDERP0z3SIyjew0SURgSD+Lu9kMZoXLhwN9O+tukAlrNpJg1SzDH4QW/URgNYgZTkjA4UkwJUgGXng+6DX1zLfmoymdXo17xh5zmRJ6Q42BWCfc2oJfdAr+Yv+AP9Cb7OJ3H/2JG1HNGz/84klThPVCc=);points=[];labelBackgroundColor=none;rounded=0;html=1;whiteSpace=wrap;horizontal=0;strokeColor=#666666;fontColor=#333333;" parent="1" vertex="1">
                        <mxGeometry x="791" y="462.75" width="52" height="133" as="geometry"/>
                    </mxCell>
                </UserObject>
                <mxCell id="4" value="&lt;div style=&quot;font-size: 1px&quot;&gt;&lt;/div&gt;" style="vsdxID=23;edgeStyle=none;startArrow=none;endArrow=none;startSize=5;endSize=5;strokeColor=#000000;spacingTop=-3;spacingBottom=-3;spacingLeft=-2;spacingRight=-2;verticalAlign=middle;html=1;labelBackgroundColor=#ffffff;rounded=0;align=center;entryX=0;entryY=0.5;entryDx=0;entryDy=0;" parent="1" target="125" edge="1">
                    <mxGeometry relative="1" as="geometry">
                        <mxPoint as="offset"/>
                        <Array as="points"/>
                        <mxPoint x="320" y="152" as="sourcePoint"/>
                        <mxPoint x="584" y="152" as="targetPoint"/>
                    </mxGeometry>
                </mxCell>
                <mxCell id="5" value="&lt;div style=&quot;font-size: 1px&quot;&gt;&lt;/div&gt;" style="vsdxID=24;edgeStyle=none;startArrow=none;endArrow=none;startSize=5;endSize=5;strokeColor=#000000;spacingTop=-3;spacingBottom=-3;spacingLeft=-2;spacingRight=-2;verticalAlign=middle;html=1;labelBackgroundColor=#ffffff;rounded=0;align=center;exitX=1;exitY=0.5;exitDx=0;exitDy=0;" parent="1" source="125" edge="1">
                    <mxGeometry relative="1" as="geometry">
                        <mxPoint as="offset"/>
                        <Array as="points"/>
                        <mxPoint x="600" y="152" as="sourcePoint"/>
                        <mxPoint x="628" y="152" as="targetPoint"/>
                    </mxGeometry>
                </mxCell>
                <mxCell id="9" value="&lt;div style=&quot;font-size: 1px&quot;&gt;&lt;font style=&quot;font-size:14.11px;font-family:Arial;color:#000000;direction:ltr;letter-spacing:0px;line-height:120%;opacity:1&quot;&gt;Matrix - Client - Server API&lt;/font&gt;&lt;font style=&quot;font-size:14.11px;font-family:Arial;color:#000000;direction:ltr;letter-spacing:0px;line-height:120%;opacity:1&quot;&gt;&lt;br&gt;&lt;/font&gt;&lt;/div&gt;" style="text;vsdxID=22;fillColor=none;gradientColor=none;strokeColor=none;spacingTop=-3;spacingBottom=-3;spacingLeft=-2;spacingRight=-2;points=[];labelBackgroundColor=#ffffff;rounded=0;html=1;whiteSpace=wrap;verticalAlign=middle;align=center;overflow=width;;html=1;" parent="1" vertex="1">
                    <mxGeometry x="353.49" y="157" width="202.01" height="43" as="geometry"/>
                </mxCell>
                <UserObject label="&lt;div style=&quot;font-size: 1px&quot;&gt;&lt;font style=&quot;font-size: 16.93px; color: rgb(0, 0, 0); direction: ltr; letter-spacing: 0px; line-height: 120%; opacity: 1;&quot;&gt;Client - Server -API&lt;/font&gt;&lt;/div&gt;&lt;div style=&quot;font-size: 1px&quot;&gt;&lt;font style=&quot;font-size: 16.93px; color: rgb(0, 0, 0); direction: ltr; letter-spacing: 0px; line-height: 120%; opacity: 1;&quot;&gt;Modul&lt;br&gt;&lt;/font&gt;&lt;/div&gt;" tags="Hintergrund" id="75">
                    <mxCell style="verticalAlign=middle;align=center;overflow=width;vsdxID=84;fillColor=#f2f2f2;gradientColor=none;shape=stencil(nZBLDoAgDERP0z3SIyjew0SURgSD+Lu9kMZoXLhwN9O+tukAlrNpJg1SzDH4QW/URgNYgZTkjA4UkwJUgGXng+6DX1zLfmoymdXo17xh5zmRJ6Q42BWCfc2oJfdAr+Yv+AP9Cb7OJ3H/2JG1HNGz/84klThPVCc=);points=[];labelBackgroundColor=none;rounded=0;html=1;whiteSpace=wrap;" parent="1" vertex="1">
                        <mxGeometry x="94" y="136" width="180.5" height="50" as="geometry"/>
                    </mxCell>
                </UserObject>
                <UserObject label="&lt;div style=&quot;font-size: 1px&quot;&gt;&lt;span style=&quot;font-size: 16.93px; letter-spacing: 0px; background-color: initial;&quot;&gt;Invite Authorization&lt;/span&gt;&lt;/div&gt;&lt;div style=&quot;font-size: 1px&quot;&gt;&lt;span style=&quot;font-size: 16.93px; letter-spacing: 0px; background-color: initial;&quot;&gt;Modul&lt;/span&gt;&lt;br&gt;&lt;/div&gt;" tags="Hintergrund" id="77">
                    <mxCell style="verticalAlign=middle;align=center;overflow=width;vsdxID=84;fillColor=#f5f5f5;shape=stencil(nZBLDoAgDERP0z3SIyjew0SURgSD+Lu9kMZoXLhwN9O+tukAlrNpJg1SzDH4QW/URgNYgZTkjA4UkwJUgGXng+6DX1zLfmoymdXo17xh5zmRJ6Q42BWCfc2oJfdAr+Yv+AP9Cb7OJ3H/2JG1HNGz/84klThPVCc=);points=[];labelBackgroundColor=none;rounded=0;html=1;whiteSpace=wrap;strokeColor=#666666;fontColor=#333333;" parent="1" vertex="1">
                        <mxGeometry x="94" y="210" width="180.5" height="50" as="geometry"/>
                    </mxCell>
                </UserObject>
                <mxCell id="57" value="&lt;div style=&quot;font-size: 1px&quot;&gt;&lt;/div&gt;" style="vsdxID=130;edgeStyle=none;startArrow=none;endArrow=none;startSize=5;endSize=5;strokeColor=#000000;spacingTop=-3;spacingBottom=-3;spacingLeft=-2;spacingRight=-2;verticalAlign=middle;html=1;labelBackgroundColor=#ffffff;rounded=0;align=center;entryX=0;entryY=0.5;entryDx=0;entryDy=0;" parent="1" target="111" edge="1">
                    <mxGeometry relative="1" as="geometry">
                        <mxPoint as="offset"/>
                        <Array as="points"/>
                        <mxPoint x="319" y="499" as="sourcePoint"/>
                        <mxPoint x="583" y="499" as="targetPoint"/>
                    </mxGeometry>
                </mxCell>
                <mxCell id="58" value="&lt;div style=&quot;font-size: 1px&quot;&gt;&lt;/div&gt;" style="vsdxID=131;edgeStyle=none;startArrow=none;endArrow=none;startSize=5;endSize=5;strokeColor=#000000;spacingTop=-3;spacingBottom=-3;spacingLeft=-2;spacingRight=-2;verticalAlign=middle;html=1;labelBackgroundColor=#ffffff;rounded=0;align=center;exitX=1;exitY=0.5;exitDx=0;exitDy=0;entryX=0;entryY=0.564;entryDx=0;entryDy=0;entryPerimeter=0;" parent="1" source="111" target="32" edge="1">
                    <mxGeometry relative="1" as="geometry">
                        <mxPoint as="offset"/>
                        <Array as="points"/>
                        <mxPoint x="599" y="499" as="sourcePoint"/>
                        <mxPoint x="627" y="499" as="targetPoint"/>
                    </mxGeometry>
                </mxCell>
                <mxCell id="62" value="&lt;div style=&quot;font-size: 1px&quot;&gt;&lt;font style=&quot;font-size:14.11px;font-family:Arial;color:#000000;direction:ltr;letter-spacing:0px;line-height:120%;opacity:1&quot;&gt;/fdv/search&lt;/font&gt;&lt;font style=&quot;font-size:14.11px;font-family:Arial;color:#000000;direction:ltr;letter-spacing:0px;line-height:120%;opacity:1&quot;&gt;&lt;br&gt;&lt;/font&gt;&lt;/div&gt;" style="text;vsdxID=129;spacingTop=-3;spacingBottom=-3;spacingLeft=-2;spacingRight=-2;points=[];labelBackgroundColor=#ffffff;rounded=0;html=1;whiteSpace=wrap;verticalAlign=middle;align=center;overflow=width;;html=1;" parent="1" vertex="1">
                    <mxGeometry x="325.29" y="489.97" width="94.71" height="53.02" as="geometry"/>
                </mxCell>
                <mxCell id="43" value="&lt;div style=&quot;font-size: 1px&quot;&gt;&lt;/div&gt;" style="vsdxID=120;edgeStyle=none;startArrow=none;endArrow=none;startSize=5;endSize=5;strokeColor=#000000;spacingTop=-3;spacingBottom=-3;spacingLeft=-2;spacingRight=-2;verticalAlign=middle;html=1;labelBackgroundColor=#ffffff;rounded=0;align=center;entryX=0;entryY=0.5;entryDx=0;entryDy=0;" parent="1" target="115" edge="1">
                    <mxGeometry relative="1" as="geometry">
                        <mxPoint as="offset"/>
                        <Array as="points"/>
                        <mxPoint x="320" y="560" as="sourcePoint"/>
                        <mxPoint x="584" y="560" as="targetPoint"/>
                    </mxGeometry>
                </mxCell>
                <mxCell id="44" value="&lt;div style=&quot;font-size: 1px&quot;&gt;&lt;/div&gt;" style="vsdxID=121;edgeStyle=none;startArrow=none;endArrow=none;startSize=5;endSize=5;strokeColor=#000000;spacingTop=-3;spacingBottom=-3;spacingLeft=-2;spacingRight=-2;verticalAlign=middle;html=1;labelBackgroundColor=#ffffff;rounded=0;align=center;exitX=1;exitY=0.5;exitDx=0;exitDy=0;" parent="1" source="115" edge="1">
                    <mxGeometry relative="1" as="geometry">
                        <mxPoint as="offset"/>
                        <Array as="points"/>
                        <mxPoint x="600" y="560" as="sourcePoint"/>
                        <mxPoint x="628" y="560" as="targetPoint"/>
                    </mxGeometry>
                </mxCell>
                <mxCell id="48" value="&lt;div style=&quot;font-size: 1px&quot;&gt;&lt;font style=&quot;font-size:14.11px;font-family:Arial;color:#000000;direction:ltr;letter-spacing:0px;line-height:120%;opacity:1&quot;&gt;/tim-authenticate&lt;/font&gt;&lt;font style=&quot;font-size:14.11px;font-family:Arial;color:#000000;direction:ltr;letter-spacing:0px;line-height:120%;opacity:1&quot;&gt;&lt;br/&gt;&lt;/font&gt;&lt;/div&gt;" style="text;vsdxID=119;fillColor=none;gradientColor=none;strokeColor=none;spacingTop=-3;spacingBottom=-3;spacingLeft=-2;spacingRight=-2;points=[];labelBackgroundColor=#ffffff;rounded=0;html=1;whiteSpace=wrap;verticalAlign=middle;align=center;overflow=width;;html=1;" parent="1" vertex="1">
                    <mxGeometry x="326.87" y="519.95" width="111.07" height="111.07" as="geometry"/>
                </mxCell>
                <mxCell id="24" value="&lt;div style=&quot;font-size: 1px&quot;&gt;&lt;/div&gt;" style="vsdxID=60;edgeStyle=none;startArrow=none;endArrow=none;startSize=5;endSize=5;strokeColor=#000000;spacingTop=-3;spacingBottom=-3;spacingLeft=-2;spacingRight=-2;verticalAlign=middle;html=1;labelBackgroundColor=#ffffff;rounded=0;align=center;entryX=0;entryY=0.5;entryDx=0;entryDy=0;" parent="1" target="120" edge="1">
                    <mxGeometry relative="1" as="geometry">
                        <mxPoint as="offset"/>
                        <Array as="points"/>
                        <mxPoint x="319" y="684.5" as="sourcePoint"/>
                        <mxPoint x="583" y="684.5" as="targetPoint"/>
                    </mxGeometry>
                </mxCell>
                <mxCell id="25" value="&lt;div style=&quot;font-size: 1px&quot;&gt;&lt;/div&gt;" style="vsdxID=61;edgeStyle=none;startArrow=none;endArrow=none;startSize=5;endSize=5;strokeColor=#000000;spacingTop=-3;spacingBottom=-3;spacingLeft=-2;spacingRight=-2;verticalAlign=middle;html=1;labelBackgroundColor=#ffffff;rounded=0;align=center;exitX=1;exitY=0.5;exitDx=0;exitDy=0;entryX=0.002;entryY=0.467;entryDx=0;entryDy=0;entryPerimeter=0;" parent="1" source="120" target="20" edge="1">
                    <mxGeometry relative="1" as="geometry">
                        <mxPoint as="offset"/>
                        <Array as="points"/>
                        <mxPoint x="599" y="684.5" as="sourcePoint"/>
                        <mxPoint x="627" y="684.5" as="targetPoint"/>
                    </mxGeometry>
                </mxCell>
                <mxCell id="29" value="&lt;div style=&quot;font-size: 1px&quot;&gt;&lt;font style=&quot;font-size:14.11px;font-family:Arial;color:#000000;direction:ltr;letter-spacing:0px;line-height:120%;opacity:1&quot;&gt;{authorization_endpoint}&lt;/font&gt;&lt;font style=&quot;font-size:14.11px;font-family:Arial;color:#000000;direction:ltr;letter-spacing:0px;line-height:120%;opacity:1&quot;&gt;&lt;br/&gt;&lt;/font&gt;&lt;/div&gt;" style="text;vsdxID=59;fillColor=none;gradientColor=none;strokeColor=none;spacingTop=-3;spacingBottom=-3;spacingLeft=-2;spacingRight=-2;points=[];labelBackgroundColor=#ffffff;rounded=0;html=1;whiteSpace=wrap;verticalAlign=middle;align=center;overflow=width;;html=1;" parent="1" vertex="1">
                    <mxGeometry x="322.72" y="623.93" width="158.97" height="158.97" as="geometry"/>
                </mxCell>
                <mxCell id="109" value="" style="group" parent="1" vertex="1" connectable="0">
                    <mxGeometry x="576" y="483" width="22" height="21" as="geometry"/>
                </mxCell>
                <mxCell id="110" value="" style="shape=mxgraph.arrows2.wedgeArrow;html=1;bendable=0;startWidth=3.002680965147455;fillColor=strokeColor;defaultFillColor=invert;defaultGradientColor=invert;fontSize=11;" parent="109" edge="1">
                    <mxGeometry width="100" height="100" relative="1" as="geometry">
                        <mxPoint x="17" y="4.899999999999977" as="sourcePoint"/>
                        <mxPoint x="22" y="5" as="targetPoint"/>
                    </mxGeometry>
                </mxCell>
                <mxCell id="111" value="" style="ellipse;whiteSpace=wrap;html=1;strokeColor=#1C1C1C;fillColor=none;fontFamily=Tahoma;fontSize=14;fontColor=#525252;align=center;strokeWidth=2;" parent="109" vertex="1">
                    <mxGeometry x="10" y="11" width="10" height="10" as="geometry"/>
                </mxCell>
                <mxCell id="112" value="&lt;b&gt;R&lt;/b&gt;" style="text;strokeColor=none;align=center;fillColor=none;html=1;verticalAlign=middle;whiteSpace=wrap;rounded=0;fontSize=11;spacing=2;" parent="109" vertex="1">
                    <mxGeometry width="21" height="9" as="geometry"/>
                </mxCell>
                <mxCell id="113" value="" style="group" parent="1" vertex="1" connectable="0">
                    <mxGeometry x="577" y="544" width="22" height="21" as="geometry"/>
                </mxCell>
                <mxCell id="114" value="" style="shape=mxgraph.arrows2.wedgeArrow;html=1;bendable=0;startWidth=3.002680965147455;fillColor=strokeColor;defaultFillColor=invert;defaultGradientColor=invert;fontSize=11;" parent="113" edge="1">
                    <mxGeometry width="100" height="100" relative="1" as="geometry">
                        <mxPoint x="17" y="4.899999999999977" as="sourcePoint"/>
                        <mxPoint x="22" y="5" as="targetPoint"/>
                    </mxGeometry>
                </mxCell>
                <mxCell id="115" value="" style="ellipse;whiteSpace=wrap;html=1;strokeColor=#1C1C1C;fillColor=none;fontFamily=Tahoma;fontSize=14;fontColor=#525252;align=center;strokeWidth=2;" parent="113" vertex="1">
                    <mxGeometry x="10" y="11" width="10" height="10" as="geometry"/>
                </mxCell>
                <mxCell id="116" value="&lt;b&gt;R&lt;/b&gt;" style="text;strokeColor=none;align=center;fillColor=none;html=1;verticalAlign=middle;whiteSpace=wrap;rounded=0;fontSize=11;spacing=2;" parent="113" vertex="1">
                    <mxGeometry width="21" height="9" as="geometry"/>
                </mxCell>
                <mxCell id="118" value="" style="group" parent="1" vertex="1" connectable="0">
                    <mxGeometry x="576" y="668" width="22" height="21" as="geometry"/>
                </mxCell>
                <mxCell id="119" value="" style="shape=mxgraph.arrows2.wedgeArrow;html=1;bendable=0;startWidth=3.002680965147455;fillColor=strokeColor;defaultFillColor=invert;defaultGradientColor=invert;fontSize=11;" parent="118" edge="1">
                    <mxGeometry width="100" height="100" relative="1" as="geometry">
                        <mxPoint x="17" y="4.899999999999977" as="sourcePoint"/>
                        <mxPoint x="22" y="5" as="targetPoint"/>
                    </mxGeometry>
                </mxCell>
                <mxCell id="120" value="" style="ellipse;whiteSpace=wrap;html=1;strokeColor=#1C1C1C;fillColor=none;fontFamily=Tahoma;fontSize=14;fontColor=#525252;align=center;strokeWidth=2;" parent="118" vertex="1">
                    <mxGeometry x="10" y="11" width="10" height="10" as="geometry"/>
                </mxCell>
                <mxCell id="121" value="&lt;b&gt;R&lt;/b&gt;" style="text;strokeColor=none;align=center;fillColor=none;html=1;verticalAlign=middle;whiteSpace=wrap;rounded=0;fontSize=11;spacing=2;" parent="118" vertex="1">
                    <mxGeometry width="21" height="9" as="geometry"/>
                </mxCell>
                <mxCell id="123" value="" style="group" parent="1" vertex="1" connectable="0">
                    <mxGeometry x="577" y="136" width="22" height="21" as="geometry"/>
                </mxCell>
                <mxCell id="124" value="" style="shape=mxgraph.arrows2.wedgeArrow;html=1;bendable=0;startWidth=3.002680965147455;fillColor=strokeColor;defaultFillColor=invert;defaultGradientColor=invert;fontSize=11;" parent="123" edge="1">
                    <mxGeometry width="100" height="100" relative="1" as="geometry">
                        <mxPoint x="17" y="4.899999999999977" as="sourcePoint"/>
                        <mxPoint x="22" y="5" as="targetPoint"/>
                    </mxGeometry>
                </mxCell>
                <mxCell id="125" value="" style="ellipse;whiteSpace=wrap;html=1;strokeColor=#1C1C1C;fillColor=none;fontFamily=Tahoma;fontSize=14;fontColor=#525252;align=center;strokeWidth=2;" parent="123" vertex="1">
                    <mxGeometry x="10" y="11" width="10" height="10" as="geometry"/>
                </mxCell>
                <mxCell id="126" value="&lt;b&gt;R&lt;/b&gt;" style="text;strokeColor=none;align=center;fillColor=none;html=1;verticalAlign=middle;whiteSpace=wrap;rounded=0;fontSize=11;spacing=2;" parent="123" vertex="1">
                    <mxGeometry width="21" height="9" as="geometry"/>
                </mxCell>
                <mxCell id="144" style="edgeStyle=none;html=1;entryX=1;entryY=0.5;entryDx=0;entryDy=0;endArrow=none;endFill=0;" parent="1" source="135" target="138" edge="1">
                    <mxGeometry relative="1" as="geometry"/>
                </mxCell>
                <mxCell id="135" value="&lt;font style=&quot;font-size: 16px;&quot;&gt;Push-Provider&lt;/font&gt;" style="rounded=0;whiteSpace=wrap;html=1;fillColor=#f5f5f5;fontColor=#333333;strokeColor=#666666;" parent="1" vertex="1">
                    <mxGeometry x="627" y="320" width="213" height="60" as="geometry"/>
                </mxCell>
                <mxCell id="136" value="" style="group;flipH=1;" parent="1" vertex="1" connectable="0">
                    <mxGeometry x="581" y="334" width="22" height="21" as="geometry"/>
                </mxCell>
                <mxCell id="137" value="" style="shape=mxgraph.arrows2.wedgeArrow;html=1;bendable=0;startWidth=3.002680965147455;fillColor=strokeColor;defaultFillColor=invert;defaultGradientColor=invert;fontSize=11;" parent="136" edge="1">
                    <mxGeometry width="100" height="100" relative="1" as="geometry">
                        <mxPoint x="5" y="4.899999999999977" as="sourcePoint"/>
                        <mxPoint y="5" as="targetPoint"/>
                    </mxGeometry>
                </mxCell>
                <mxCell id="138" value="" style="ellipse;whiteSpace=wrap;html=1;strokeColor=#1C1C1C;fillColor=none;fontFamily=Tahoma;fontSize=14;fontColor=#525252;align=center;strokeWidth=2;" parent="136" vertex="1">
                    <mxGeometry x="2" y="11" width="10" height="10" as="geometry"/>
                </mxCell>
                <mxCell id="139" value="&lt;b&gt;R&lt;/b&gt;" style="text;strokeColor=none;align=center;fillColor=none;html=1;verticalAlign=middle;whiteSpace=wrap;rounded=0;fontSize=11;spacing=2;" parent="136" vertex="1">
                    <mxGeometry x="1" width="21" height="9" as="geometry"/>
                </mxCell>
                <mxCell id="145" style="edgeStyle=none;html=1;entryX=1;entryY=0.534;entryDx=0;entryDy=0;entryPerimeter=0;endArrow=none;endFill=0;" parent="1" source="138" edge="1">
                    <mxGeometry relative="1" as="geometry">
                        <mxPoint x="319" y="350.0720000000001" as="targetPoint"/>
                    </mxGeometry>
                </mxCell>
                <mxCell id="149" value="&lt;div style=&quot;font-size: 1px&quot;&gt;&lt;font style=&quot;font-size:14.11px;font-family:Arial;color:#000000;direction:ltr;letter-spacing:0px;line-height:120%;opacity:1&quot;&gt;Push Notifications&lt;br&gt;&lt;/font&gt;&lt;/div&gt;" style="text;vsdxID=32;fillColor=none;gradientColor=none;strokeColor=none;spacingTop=-3;spacingBottom=-3;spacingLeft=-2;spacingRight=-2;points=[];labelBackgroundColor=#ffffff;rounded=0;html=1;whiteSpace=wrap;verticalAlign=middle;align=center;overflow=width;;html=1;" parent="1" vertex="1">
                    <mxGeometry x="323.02" y="340" width="253.98" height="40" as="geometry"/>
                </mxCell>
            </root>
        </mxGraphModel>
    </diagram>
</mxfile>